<svg width="1008" height="623" viewBox="0 0 1008 623" fill="none" xmlns="http://www.w3.org/2000/svg">
<g filter="url(#filter0_f)">
<ellipse cx="504.5" cy="574" rx="452.5" ry="5" fill="black"/>
</g>
<path d="M126 1H886C900.912 1 913 13.0883 913 28V550C913 551.657 911.657 553 910 553H102C100.343 553 99 551.657 99 550V28C99 13.0883 111.088 1 126 1Z" fill="#1A202C" stroke="#4A5568" stroke-width="2"/>
<path d="M103 27C103 14.8497 112.85 5 125 5H887C899.15 5 909 14.8497 909 27V533H103V27Z" fill="black"/>
<rect x="124" y="33" width="761" height="478" fill="white"/>
<path d="M0 552C0 550.895 0.895431 550 2 550H1006C1007.1 550 1008 550.895 1008 552V556H0V552Z" fill="#A3ACB1"/>
<path d="M0 552C0 550.895 0.895431 550 2 550H1006C1007.1 550 1008 550.895 1008 552V556H0V552Z" fill="url(#paint0_linear)"/>
<path d="M0 556H1008L987.646 560.105C961.613 565.355 935.123 568 908.566 568H97.9089C68.724 568 39.6267 564.806 11.1367 558.475L0 556Z" fill="#647279"/>
<path d="M0 556H1008L987.646 560.105C961.613 565.355 935.123 568 908.566 568H97.9089C68.724 568 39.6267 564.806 11.1367 558.475L0 556Z" fill="url(#paint1_linear)"/>
<path fill-rule="evenodd" clip-rule="evenodd" d="M430.033 550C430.547 553.351 428.052 556 436 556H573C580.948 556 578.453 553.351 578.967 550H430.033Z" fill="#96A1A8"/>
<path fill-rule="evenodd" clip-rule="evenodd" d="M430.033 550C430.547 553.351 428.052 556 436 556H573C580.948 556 578.453 553.351 578.967 550H430.033Z" fill="url(#paint2_linear)"/>
<g clip-path="url(#clip0)">
<g clip-path="url(#clip1)">
<path d="M1014.9 33H166V511H1014.9V33Z" fill="#F2F2F2"/>
<path d="M466.21 205.168H314.999C312.069 205.168 309.694 207.546 309.694 210.48V266.689C309.694 269.622 312.069 272 314.999 272H466.21C469.14 272 471.515 269.622 471.515 266.689V210.48C471.515 207.546 469.14 205.168 466.21 205.168Z" fill="white"/>
<path d="M309.694 210.48C309.694 207.547 312.069 205.168 314.999 205.168H466.21C469.14 205.168 471.515 207.547 471.515 210.48V232.609H309.694V210.48Z" fill="#4CAF50"/>
<path d="M471.515 246.329C473.713 246.329 475.494 244.546 475.494 242.346C475.494 240.146 473.713 238.363 471.515 238.363C469.317 238.363 467.536 240.146 467.536 242.346C467.536 244.546 469.317 246.329 471.515 246.329Z" fill="white"/>
<path d="M471.515 245.002C472.98 245.002 474.168 243.813 474.168 242.346C474.168 240.88 472.98 239.691 471.515 239.691C470.05 239.691 468.862 240.88 468.862 242.346C468.862 243.813 470.05 245.002 471.515 245.002Z" fill="#546774"/>
<path d="M471.515 261.82C473.713 261.82 475.494 260.037 475.494 257.837C475.494 255.637 473.713 253.854 471.515 253.854C469.317 253.854 467.536 255.637 467.536 257.837C467.536 260.037 469.317 261.82 471.515 261.82Z" fill="white"/>
<path d="M471.515 260.493C472.98 260.493 474.168 259.304 474.168 257.837C474.168 256.371 472.98 255.182 471.515 255.182C470.05 255.182 468.862 256.371 468.862 257.837C468.862 259.304 470.05 260.493 471.515 260.493Z" fill="#546774"/>
<path d="M309.694 253.411C311.891 253.411 313.673 251.628 313.673 249.428C313.673 247.228 311.891 245.444 309.694 245.444C307.496 245.444 305.715 247.228 305.715 249.428C305.715 251.628 307.496 253.411 309.694 253.411Z" fill="white"/>
<path d="M309.694 252.083C311.159 252.083 312.347 250.894 312.347 249.428C312.347 247.961 311.159 246.772 309.694 246.772C308.229 246.772 307.041 247.961 307.041 249.428C307.041 250.894 308.229 252.083 309.694 252.083Z" fill="#546774"/>
<path d="M444.987 240.576H336.664C334.222 240.576 332.243 242.557 332.243 245.002V259.607C332.243 262.052 334.222 264.033 336.664 264.033H444.987C447.429 264.033 449.408 262.052 449.408 259.607V245.002C449.408 242.557 447.429 240.576 444.987 240.576Z" fill="#C4C4C4" fill-opacity="0.48"/>
<path d="M318.979 33H166V511H318.979V33Z" fill="white"/>
<path d="M306.599 44.5073H178.38C175.938 44.5073 173.958 46.4889 173.958 48.9333V71.5055C173.958 73.9498 175.938 75.9314 178.38 75.9314H306.599C309.041 75.9314 311.02 73.9498 311.02 71.5055V48.9333C311.02 46.4889 309.041 44.5073 306.599 44.5073Z" fill="#C4C4C4" fill-opacity="0.48"/>
<g filter="url(#filter1_d)">
<path d="M918.514 345.028H767.304C764.373 345.028 761.998 347.406 761.998 350.339V406.548C761.998 409.481 764.373 411.859 767.304 411.859H918.514C921.444 411.859 923.819 409.481 923.819 406.548V350.339C923.819 347.406 921.444 345.028 918.514 345.028Z" fill="white"/>
<path d="M761.998 350.339C761.998 347.406 764.372 345.028 767.304 345.028H918.514C921.445 345.028 923.819 347.406 923.819 350.339V372.469H761.998V350.339Z" fill="#4CAF50"/>
<path d="M761.998 393.27C764.196 393.27 765.977 391.487 765.977 389.287C765.977 387.087 764.196 385.304 761.998 385.304C759.8 385.304 758.019 387.087 758.019 389.287C758.019 391.487 759.8 393.27 761.998 393.27Z" fill="white"/>
<path d="M761.998 391.943C763.463 391.943 764.651 390.754 764.651 389.287C764.651 387.821 763.463 386.632 761.998 386.632C760.533 386.632 759.345 387.821 759.345 389.287C759.345 390.754 760.533 391.943 761.998 391.943Z" fill="#546774"/>
<path d="M897.291 380.435H788.968C786.526 380.435 784.547 382.417 784.547 384.861V399.467C784.547 401.911 786.526 403.892 788.968 403.892H897.291C899.733 403.892 901.713 401.911 901.713 399.467V384.861C901.713 382.417 899.733 380.435 897.291 380.435Z" fill="#C4C4C4" fill-opacity="0.48"/>
</g>
<path d="M679.761 84.3408H528.551C525.621 84.3408 523.245 86.7187 523.245 89.6519V145.861C523.245 148.794 525.621 151.172 528.551 151.172H679.761C682.691 151.172 685.067 148.794 685.067 145.861V89.6519C685.067 86.7187 682.691 84.3408 679.761 84.3408Z" fill="white"/>
<path d="M523.245 89.6519C523.245 86.7189 525.621 84.3408 528.551 84.3408H679.761C682.692 84.3408 685.067 86.7189 685.067 89.6519V111.782H523.245V89.6519Z" fill="#31518B"/>
<path d="M685.066 133.911C687.264 133.911 689.046 132.128 689.046 129.928C689.046 127.728 687.264 125.944 685.066 125.944C682.869 125.944 681.087 127.728 681.087 129.928C681.087 132.128 682.869 133.911 685.066 133.911Z" fill="white"/>
<path d="M685.067 132.584C686.532 132.584 687.719 131.395 687.719 129.928C687.719 128.461 686.532 127.272 685.067 127.272C683.602 127.272 682.414 128.461 682.414 129.928C682.414 131.395 683.602 132.584 685.067 132.584Z" fill="#546774"/>
<path d="M523.245 133.911C525.443 133.911 527.224 132.128 527.224 129.928C527.224 127.728 525.443 125.944 523.245 125.944C521.047 125.944 519.266 127.728 519.266 129.928C519.266 132.128 521.047 133.911 523.245 133.911Z" fill="white"/>
<path d="M523.245 132.584C524.71 132.584 525.898 131.395 525.898 129.928C525.898 128.461 524.71 127.272 523.245 127.272C521.78 127.272 520.592 128.461 520.592 129.928C520.592 131.395 521.78 132.584 523.245 132.584Z" fill="#546774"/>
<path d="M658.538 119.748H550.215C547.773 119.748 545.794 121.73 545.794 124.174V138.78C545.794 141.224 547.773 143.205 550.215 143.205H658.538C660.98 143.205 662.96 141.224 662.96 138.78V124.174C662.96 121.73 660.98 119.748 658.538 119.748Z" fill="#C4C4C4" fill-opacity="0.48"/>
<path d="M679.761 343.7H528.551C525.621 343.7 523.245 346.078 523.245 349.011V405.221C523.245 408.154 525.621 410.532 528.551 410.532H679.761C682.691 410.532 685.067 408.154 685.067 405.221V349.011C685.067 346.078 682.691 343.7 679.761 343.7Z" fill="white"/>
<path d="M523.245 349.011C523.245 346.078 525.621 343.7 528.551 343.7H679.761C682.692 343.7 685.067 346.078 685.067 349.011V371.141H523.245V349.011Z" fill="#FF9800"/>
<path d="M685.066 393.27C687.264 393.27 689.046 391.487 689.046 389.287C689.046 387.087 687.264 385.304 685.066 385.304C682.869 385.304 681.087 387.087 681.087 389.287C681.087 391.487 682.869 393.27 685.066 393.27Z" fill="white"/>
<path d="M685.067 391.943C686.532 391.943 687.719 390.754 687.719 389.287C687.719 387.821 686.532 386.632 685.067 386.632C683.602 386.632 682.414 387.821 682.414 389.287C682.414 390.754 683.602 391.943 685.067 391.943Z" fill="#546774"/>
<path d="M523.245 393.27C525.443 393.27 527.224 391.487 527.224 389.287C527.224 387.087 525.443 385.304 523.245 385.304C521.047 385.304 519.266 387.087 519.266 389.287C519.266 391.487 521.047 393.27 523.245 393.27Z" fill="white"/>
<path d="M523.245 391.943C524.71 391.943 525.898 390.754 525.898 389.287C525.898 387.821 524.71 386.632 523.245 386.632C521.78 386.632 520.592 387.821 520.592 389.287C520.592 390.754 521.78 391.943 523.245 391.943Z" fill="#546774"/>
<path d="M658.538 379.107H550.215C547.773 379.107 545.794 381.089 545.794 383.533V398.139C545.794 400.583 547.773 402.565 550.215 402.565H658.538C660.98 402.565 662.96 400.583 662.96 398.139V383.533C662.96 381.089 660.98 379.107 658.538 379.107Z" fill="#C4C4C4" fill-opacity="0.48"/>
<path d="M918.514 84.3408H767.304C764.373 84.3408 761.998 86.7187 761.998 89.6519V145.861C761.998 148.794 764.373 151.172 767.304 151.172H918.514C921.444 151.172 923.819 148.794 923.819 145.861V89.6519C923.819 86.7187 921.444 84.3408 918.514 84.3408Z" fill="white"/>
<path d="M761.998 89.6519C761.998 86.7189 764.372 84.3408 767.304 84.3408H918.514C921.445 84.3408 923.819 86.7189 923.819 89.6519V111.782H761.998V89.6519Z" fill="#FF9800"/>
<path d="M761.998 133.911C764.196 133.911 765.977 132.128 765.977 129.928C765.977 127.728 764.196 125.944 761.998 125.944C759.8 125.944 758.019 127.728 758.019 129.928C758.019 132.128 759.8 133.911 761.998 133.911Z" fill="white"/>
<path d="M761.998 132.584C763.463 132.584 764.651 131.395 764.651 129.928C764.651 128.461 763.463 127.272 761.998 127.272C760.533 127.272 759.345 128.461 759.345 129.928C759.345 131.395 760.533 132.584 761.998 132.584Z" fill="#546774"/>
<path d="M897.291 119.748H788.968C786.526 119.748 784.547 121.73 784.547 124.174V138.78C784.547 141.224 786.526 143.205 788.968 143.205H897.291C899.733 143.205 901.713 141.224 901.713 138.78V124.174C901.713 121.73 899.733 119.748 897.291 119.748Z" fill="#C4C4C4" fill-opacity="0.48"/>
<path d="M520.908 130.905C521.08 130.732 521.08 130.452 520.908 130.279L518.094 127.462C517.921 127.289 517.641 127.289 517.469 127.462C517.296 127.635 517.296 127.915 517.469 128.088L519.97 130.592L517.469 133.096C517.296 133.268 517.296 133.548 517.469 133.721C517.641 133.894 517.921 133.894 518.094 133.721L520.908 130.905ZM501.578 131.034H520.595V130.149H501.578V131.034Z" fill="#546774"/>
<path d="M502.022 130.371V242.789" stroke="#546774"/>
<path d="M471.515 242.346H502.315" stroke="#546774"/>
<path d="M759.217 130.241C759.389 130.068 759.389 129.788 759.217 129.615L756.4 126.798C756.228 126.625 755.95 126.625 755.777 126.798C755.605 126.971 755.605 127.251 755.777 127.424L758.28 129.928L755.777 132.432C755.605 132.604 755.605 132.885 755.777 133.057C755.95 133.23 756.228 133.23 756.4 133.057L759.217 130.241ZM685.509 130.37H758.903V129.485H685.509V130.37Z" fill="#546774"/>
<path d="M759.217 389.6C759.389 389.427 759.389 389.147 759.217 388.974L756.4 386.158C756.228 385.985 755.95 385.985 755.777 386.158C755.605 386.33 755.605 386.611 755.777 386.783L758.28 389.287L755.777 391.791C755.605 391.963 755.605 392.244 755.777 392.417C755.95 392.59 756.228 392.59 756.4 392.417L759.217 389.6ZM685.509 389.73H758.903V388.845H685.509V389.73Z" fill="#546774"/>
<path d="M520.905 389.156C521.078 389.329 521.078 389.609 520.905 389.782L518.091 392.599C517.919 392.772 517.639 392.772 517.466 392.599C517.293 392.426 517.293 392.146 517.466 391.973L519.967 389.469L517.466 386.966C517.293 386.793 517.293 386.512 517.466 386.339C517.639 386.167 517.919 386.167 518.091 386.339L520.905 389.156ZM501.577 389.026H520.592V389.912H501.577V389.026Z" fill="#546774"/>
<path d="M502.021 389.729V257.394" stroke="#546774"/>
<path d="M471.515 257.837H502.315" stroke="#546774"/>
<path d="M494.948 237.478H478.147C476.926 237.478 475.937 238.468 475.937 239.691V244.116C475.937 245.339 476.926 246.329 478.147 246.329H494.948C496.169 246.329 497.159 245.339 497.159 244.116V239.691C497.159 238.468 496.169 237.478 494.948 237.478Z" fill="white" stroke="#BDBDBD" stroke-width="0.5"/>
<path d="M494.948 252.968H478.147C476.926 252.968 475.937 253.959 475.937 255.181V259.607C475.937 260.829 476.926 261.82 478.147 261.82H494.948C496.169 261.82 497.159 260.829 497.159 259.607V255.181C497.159 253.959 496.169 252.968 494.948 252.968Z" fill="white" stroke="#BDBDBD" stroke-width="0.5"/>
<path d="M469.305 439.964H330.032C328.933 439.964 328.042 440.856 328.042 441.956V500.378C328.042 501.478 328.933 502.369 330.032 502.369H469.305C470.403 502.369 471.294 501.478 471.294 500.378V441.956C471.294 440.856 470.403 439.964 469.305 439.964Z" fill="#C4C4C4" fill-opacity="0.21" stroke="#546774"/>
<path d="M304.388 261.378H180.591C176.928 261.378 173.958 264.35 173.958 268.017V289.261C173.958 292.928 176.928 295.9 180.591 295.9H304.388C308.051 295.9 311.02 292.928 311.02 289.261V268.017C311.02 264.35 308.051 261.378 304.388 261.378Z" fill="white"/>
<path d="M304.388 262.263H180.591C177.416 262.263 174.843 264.839 174.843 268.017V289.261C174.843 292.439 177.416 295.015 180.591 295.015H304.388C307.563 295.015 310.136 292.439 310.136 289.261V268.017C310.136 264.839 307.563 262.263 304.388 262.263Z" stroke="#31518B"/>
<path d="M265.48 271.115H188.107C185.665 271.115 183.685 273.096 183.685 275.541V281.737C183.685 284.181 185.665 286.163 188.107 286.163H265.48C267.922 286.163 269.902 284.181 269.902 281.737V275.541C269.902 273.096 267.922 271.115 265.48 271.115Z" fill="#E3E3E3"/>
<path d="M300.851 269.787H287.587C286.366 269.787 285.376 270.778 285.376 272V285.278C285.376 286.5 286.366 287.491 287.587 287.491H300.851C302.072 287.491 303.062 286.5 303.062 285.278V272C303.062 270.778 302.072 269.787 300.851 269.787Z" fill="#31518B"/>
<path d="M294.219 283.065C296.661 283.065 298.641 281.083 298.641 278.639C298.641 276.194 296.661 274.213 294.219 274.213C291.777 274.213 289.798 276.194 289.798 278.639C289.798 281.083 291.777 283.065 294.219 283.065Z" fill="white"/>
<path d="M304.388 309.178H180.591C176.928 309.178 173.958 312.15 173.958 315.817V337.061C173.958 340.728 176.928 343.7 180.591 343.7H304.388C308.051 343.7 311.02 340.728 311.02 337.061V315.817C311.02 312.15 308.051 309.178 304.388 309.178Z" fill="white"/>
<path d="M304.388 310.063H180.591C177.416 310.063 174.843 312.639 174.843 315.817V337.061C174.843 340.239 177.416 342.815 180.591 342.815H304.388C307.563 342.815 310.136 340.239 310.136 337.061V315.817C310.136 312.639 307.563 310.063 304.388 310.063Z" stroke="#4CAF50"/>
<path d="M265.48 318.915H188.107C185.665 318.915 183.685 320.897 183.685 323.341V329.537C183.685 331.982 185.665 333.963 188.107 333.963H265.48C267.922 333.963 269.902 331.982 269.902 329.537V323.341C269.902 320.897 267.922 318.915 265.48 318.915Z" fill="#E3E3E3"/>
<path d="M300.851 317.587H287.587C286.366 317.587 285.376 318.578 285.376 319.8V333.078C285.376 334.3 286.366 335.291 287.587 335.291H300.851C302.072 335.291 303.062 334.3 303.062 333.078V319.8C303.062 318.578 302.072 317.587 300.851 317.587Z" fill="#4CAF50"/>
<path d="M294.219 330.865C296.661 330.865 298.641 328.883 298.641 326.439C298.641 323.995 296.661 322.013 294.219 322.013C291.777 322.013 289.798 323.995 289.798 326.439C289.798 328.883 291.777 330.865 294.219 330.865Z" fill="white"/>
<path d="M304.388 213.578H180.591C176.928 213.578 173.958 216.55 173.958 220.217V241.461C173.958 245.127 176.928 248.1 180.591 248.1H304.388C308.051 248.1 311.02 245.127 311.02 241.461V220.217C311.02 216.55 308.051 213.578 304.388 213.578Z" fill="white"/>
<path d="M304.388 214.463H180.591C177.416 214.463 174.843 217.039 174.843 220.217V241.461C174.843 244.639 177.416 247.215 180.591 247.215H304.388C307.563 247.215 310.136 244.639 310.136 241.461V220.217C310.136 217.039 307.563 214.463 304.388 214.463Z" stroke="#31518B"/>
<path d="M265.48 223.315H188.107C185.665 223.315 183.685 225.297 183.685 227.741V233.937C183.685 236.382 185.665 238.363 188.107 238.363H265.48C267.922 238.363 269.902 236.382 269.902 233.937V227.741C269.902 225.297 267.922 223.315 265.48 223.315Z" fill="#E3E3E3"/>
<path d="M300.851 221.987H287.587C286.366 221.987 285.376 222.978 285.376 224.2V237.478C285.376 238.7 286.366 239.691 287.587 239.691H300.851C302.072 239.691 303.062 238.7 303.062 237.478V224.2C303.062 222.978 302.072 221.987 300.851 221.987Z" fill="#31518B"/>
<path d="M294.219 235.265C296.661 235.265 298.641 233.283 298.641 230.839C298.641 228.395 296.661 226.413 294.219 226.413C291.777 226.413 289.798 228.395 289.798 230.839C289.798 233.283 291.777 235.265 294.219 235.265Z" fill="white"/>
<path d="M304.388 356.978H180.591C176.928 356.978 173.958 359.95 173.958 363.616V384.861C173.958 388.527 176.928 391.5 180.591 391.5H304.388C308.051 391.5 311.02 388.527 311.02 384.861V363.616C311.02 359.95 308.051 356.978 304.388 356.978Z" fill="white"/>
<path d="M304.388 357.863H180.591C177.416 357.863 174.843 360.439 174.843 363.616V384.861C174.843 388.039 177.416 390.615 180.591 390.615H304.388C307.563 390.615 310.136 388.039 310.136 384.861V363.616C310.136 360.439 307.563 357.863 304.388 357.863Z" stroke="#4CAF50"/>
<path d="M265.48 366.715H188.107C185.665 366.715 183.685 368.696 183.685 371.141V377.337C183.685 379.781 185.665 381.763 188.107 381.763H265.48C267.922 381.763 269.902 379.781 269.902 377.337V371.141C269.902 368.696 267.922 366.715 265.48 366.715Z" fill="#E3E3E3"/>
<path d="M300.851 365.387H287.587C286.366 365.387 285.376 366.378 285.376 367.6V380.878C285.376 382.1 286.366 383.091 287.587 383.091H300.851C302.072 383.091 303.062 382.1 303.062 380.878V367.6C303.062 366.378 302.072 365.387 300.851 365.387Z" fill="#4CAF50"/>
<path d="M294.219 378.665C296.661 378.665 298.641 376.683 298.641 374.239C298.641 371.795 296.661 369.813 294.219 369.813C291.777 369.813 289.798 371.795 289.798 374.239C289.798 376.683 291.777 378.665 294.219 378.665Z" fill="white"/>
<path d="M304.388 404.778H180.591C176.928 404.778 173.958 407.75 173.958 411.417V432.661C173.958 436.328 176.928 439.3 180.591 439.3H304.388C308.051 439.3 311.02 436.328 311.02 432.661V411.417C311.02 407.75 308.051 404.778 304.388 404.778Z" fill="white"/>
<path d="M304.388 405.663H180.591C177.416 405.663 174.843 408.239 174.843 411.417V432.661C174.843 435.839 177.416 438.415 180.591 438.415H304.388C307.563 438.415 310.136 435.839 310.136 432.661V411.417C310.136 408.239 307.563 405.663 304.388 405.663Z" stroke="#FF9800"/>
<path d="M265.48 414.515H188.107C185.665 414.515 183.685 416.496 183.685 418.941V425.137C183.685 427.581 185.665 429.563 188.107 429.563H265.48C267.922 429.563 269.902 427.581 269.902 425.137V418.941C269.902 416.496 267.922 414.515 265.48 414.515Z" fill="#E3E3E3"/>
<path d="M300.851 413.187H287.587C286.366 413.187 285.376 414.178 285.376 415.4V428.678C285.376 429.9 286.366 430.891 287.587 430.891H300.851C302.072 430.891 303.062 429.9 303.062 428.678V415.4C303.062 414.178 302.072 413.187 300.851 413.187Z" fill="#FF9800"/>
<path d="M294.219 426.465C296.661 426.465 298.641 424.483 298.641 422.039C298.641 419.594 296.661 417.613 294.219 417.613C291.777 417.613 289.798 419.594 289.798 422.039C289.798 424.483 291.777 426.465 294.219 426.465Z" fill="white"/>
<path d="M304.388 452.578H180.591C176.928 452.578 173.958 455.55 173.958 459.217V480.461C173.958 484.128 176.928 487.1 180.591 487.1H304.388C308.051 487.1 311.02 484.128 311.02 480.461V459.217C311.02 455.55 308.051 452.578 304.388 452.578Z" fill="white"/>
<path d="M304.388 453.463H180.591C177.416 453.463 174.843 456.039 174.843 459.217V480.461C174.843 483.639 177.416 486.215 180.591 486.215H304.388C307.563 486.215 310.136 483.639 310.136 480.461V459.217C310.136 456.039 307.563 453.463 304.388 453.463Z" stroke="#FF9800"/>
<path d="M265.48 462.315H188.107C185.665 462.315 183.685 464.296 183.685 466.741V472.937C183.685 475.382 185.665 477.363 188.107 477.363H265.48C267.922 477.363 269.902 475.382 269.902 472.937V466.741C269.902 464.296 267.922 462.315 265.48 462.315Z" fill="#E3E3E3"/>
<path d="M300.851 460.987H287.587C286.366 460.987 285.376 461.978 285.376 463.2V476.478C285.376 477.7 286.366 478.691 287.587 478.691H300.851C302.072 478.691 303.062 477.7 303.062 476.478V463.2C303.062 461.978 302.072 460.987 300.851 460.987Z" fill="#FF9800"/>
<path d="M294.219 474.265C296.661 474.265 298.641 472.283 298.641 469.839C298.641 467.395 296.661 465.413 294.219 465.413C291.777 465.413 289.798 467.395 289.798 469.839C289.798 472.283 291.777 474.265 294.219 474.265Z" fill="white"/>
<path d="M303.062 173.745H180.591C176.928 173.745 173.958 176.717 173.958 180.384V182.596C173.958 186.263 176.928 189.235 180.591 189.235H303.062C306.725 189.235 309.694 186.263 309.694 182.596V180.384C309.694 176.717 306.725 173.745 303.062 173.745Z" fill="white"/>
<path d="M303.062 173.966H180.591C177.05 173.966 174.18 176.839 174.18 180.383V182.596C174.18 186.141 177.05 189.014 180.591 189.014H303.062C306.603 189.014 309.473 186.141 309.473 182.596V180.383C309.473 176.839 306.603 173.966 303.062 173.966Z" stroke="#BDBDBD"/>
<path d="M173.958 180.384C173.958 176.717 176.928 173.745 180.591 173.745H246.469V188.793H180.591C176.928 188.793 173.958 185.82 173.958 182.154V180.384Z" fill="#31518B"/>
<path d="M177 157.147H310" stroke="#BDBDBD"/>
<path d="M319 511L319 33" stroke="#BDBDBD"/>
<path d="M309.694 117.535H175.285C174.552 117.535 173.958 118.13 173.958 118.863V139.665C173.958 140.398 174.552 140.993 175.285 140.993H309.694C310.426 140.993 311.02 140.398 311.02 139.665V118.863C311.02 118.13 310.426 117.535 309.694 117.535Z" fill="#4CAF50"/>
<path d="M309.694 86.5537H246.026C245.294 86.5537 244.7 87.1482 244.7 87.8815V108.683C244.7 109.417 245.294 110.011 246.026 110.011H309.694C310.426 110.011 311.02 109.417 311.02 108.683V87.8815C311.02 87.1482 310.426 86.5537 309.694 86.5537Z" fill="#31518B"/>
<path d="M238.952 86.5537H175.285C174.552 86.5537 173.958 87.1482 173.958 87.8815V108.683C173.958 109.417 174.552 110.011 175.285 110.011H238.952C239.685 110.011 240.279 109.417 240.279 108.683V87.8815C240.279 87.1482 239.685 86.5537 238.952 86.5537Z" fill="#31518B"/>
</g>
<path d="M124 190H146C157.046 190 166 198.954 166 210V511H124V190Z" fill="#203864"/>
<path d="M124 33H166V131C166 142.046 157.046 151 146 151H124V33Z" fill="#203864"/>
<path d="M144.186 497.062H145.814V495.442H144.186V497.062ZM145 484.104C140.507 484.104 136.86 487.732 136.86 492.202C136.86 496.673 140.507 500.301 145 500.301C149.493 500.301 153.139 496.673 153.139 492.202C153.139 487.732 149.493 484.104 145 484.104ZM145 498.681C141.41 498.681 138.488 495.774 138.488 492.202C138.488 488.631 141.41 485.723 145 485.723C148.589 485.723 151.512 488.631 151.512 492.202C151.512 495.774 148.589 498.681 145 498.681ZM145 487.343C143.201 487.343 141.744 488.793 141.744 490.583H143.372C143.372 489.692 144.105 488.963 145 488.963C145.895 488.963 146.628 489.692 146.628 490.583C146.628 492.202 144.186 492 144.186 494.632H145.814C145.814 492.81 148.256 492.607 148.256 490.583C148.256 488.793 146.799 487.343 145 487.343Z" fill="#F2F2F2"/>
<path d="M151.512 335.895H138.488C137.593 335.895 136.868 336.624 136.868 337.515L136.86 352.093L140.116 348.853H151.512C152.407 348.853 153.139 348.124 153.139 347.233V337.515C153.139 336.624 152.407 335.895 151.512 335.895ZM140.116 341.564H149.884V343.184H140.116V341.564ZM146.628 345.614H140.116V343.994H146.628V345.614ZM149.884 340.754H140.116V339.135H149.884V340.754Z" fill="#F2F2F2"/>
<path d="M144.186 280.564V278.07C140.116 278.475 136.86 281.965 136.86 286.169C136.86 290.372 140.116 293.863 144.186 294.267V291.773C141.744 291.384 139.302 289.019 139.302 286.169C139.302 283.318 141.744 280.953 144.186 280.564V280.564ZM150.673 285.359H153.139C152.757 281.309 149.884 278.45 145.814 278.07V280.564C148.256 280.913 150.323 282.929 150.673 285.359ZM145.814 291.773V294.267C149.884 293.887 152.757 291.028 153.139 286.979H150.673C150.323 289.408 148.256 291.425 145.814 291.773Z" fill="#F2F2F2"/>
<path d="M141.093 232.879C142.531 232.879 143.698 231.718 143.698 230.287C143.698 228.856 142.531 227.695 141.093 227.695C139.654 227.695 138.488 228.856 138.488 230.287C138.488 231.718 139.654 232.879 141.093 232.879Z" fill="#F2F2F2"/>
<path d="M147.279 234.822C148.178 234.822 148.907 234.097 148.907 233.202C148.907 232.308 148.178 231.583 147.279 231.583C146.38 231.583 145.651 232.308 145.651 233.202C145.651 234.097 146.38 234.822 147.279 234.822Z" fill="#F2F2F2"/>
<path d="M147.604 229.639C149.762 229.639 151.511 227.899 151.511 225.752C151.511 223.605 149.762 221.864 147.604 221.864C145.447 221.864 143.698 223.605 143.698 225.752C143.698 227.899 145.447 229.639 147.604 229.639Z" fill="#F2F2F2"/>
<g clip-path="url(#clip2)">
<path d="M148.24 166.448L145 169.704H142.425C142.085 168.76 141.194 168.076 140.141 168.076C138.796 168.076 137.711 169.167 137.711 170.518C137.711 171.869 138.796 172.96 140.141 172.96C141.194 172.96 142.085 172.276 142.425 171.332H145L148.24 174.587V177.843H152.289V173.773H149.819L146.417 170.518L149.819 167.262H152.289V163.192H148.24V166.448Z" fill="#203864"/>
</g>
<path fill-rule="evenodd" clip-rule="evenodd" d="M154.737 41.3886C155.089 40.7934 154.649 40.0493 153.945 40.0493H142.84C142.135 40.0493 141.695 40.7934 142.047 41.3886L147.6 50.7725C147.952 51.3678 148.832 51.3678 149.185 50.7725L154.737 41.3886Z" fill="white"/>
<path fill-rule="evenodd" clip-rule="evenodd" d="M141.224 41.7457C140.872 41.1505 139.991 41.1505 139.639 41.7457L133.558 52.0225C133.395 52.2988 133.395 52.6391 133.558 52.9154L140.167 64.085C140.331 64.3613 140.633 64.5315 140.96 64.5315H153.121C153.825 64.5315 154.266 63.7874 153.914 63.1922L141.224 41.7457Z" fill="white"/>
</g>
<g clip-path="url(#clip3)">
<g filter="url(#filter2_f)">
<path d="M848 596.869C904.885 596.869 951 595.555 951 593.935C951 592.314 904.885 591 848 591C791.115 591 745 592.314 745 593.935C745 595.555 791.115 596.869 848 596.869Z" fill="black"/>
</g>
<path d="M743.982 192.169L749.898 179.374L763.208 165.118H919.597L940.301 173.16L953.981 187.782V561.377L949.174 581.848L931.058 595.008H772.45L752.856 584.407L743.982 565.764V192.169Z" fill="white"/>
<path d="M745.378 562.868H950.901" stroke="#E6E6E6"/>
<path fill-rule="evenodd" clip-rule="evenodd" d="M778.051 160H918.084C929.069 160.012 939.601 164.332 947.368 172.012C955.135 179.692 959.505 190.105 959.517 200.966V559.812C959.505 570.673 955.135 581.086 947.368 588.766C939.601 596.446 929.069 600.766 918.084 600.778H778.051C767.067 600.766 756.535 596.446 748.768 588.766C741 581.086 736.631 570.673 736.619 559.812V305.735C736.331 305.813 736.029 305.825 735.737 305.768C735.444 305.711 735.169 305.587 734.933 305.407C734.697 305.227 734.507 304.995 734.377 304.73C734.247 304.465 734.182 304.173 734.185 303.879V279.819C734.182 279.524 734.247 279.232 734.377 278.967C734.507 278.702 734.697 278.47 734.933 278.29C735.169 278.11 735.444 277.986 735.737 277.929C736.029 277.872 736.331 277.884 736.619 277.962V269.164C736.331 269.242 736.029 269.253 735.737 269.197C735.444 269.14 735.169 269.016 734.933 268.836C734.697 268.656 734.507 268.424 734.377 268.159C734.247 267.894 734.182 267.602 734.185 267.307V243.247C734.182 242.953 734.247 242.661 734.377 242.396C734.507 242.131 734.697 241.899 734.933 241.719C735.169 241.539 735.444 241.415 735.737 241.358C736.029 241.301 736.331 241.312 736.619 241.391V226.819C736.331 226.897 736.029 226.908 735.737 226.851C735.444 226.794 735.169 226.671 734.933 226.491C734.697 226.311 734.507 226.079 734.377 225.813C734.247 225.548 734.182 225.257 734.185 224.962V215.338C734.182 215.043 734.247 214.752 734.377 214.486C734.507 214.221 734.697 213.989 734.933 213.809C735.169 213.629 735.444 213.506 735.737 213.449C736.029 213.392 736.331 213.403 736.619 213.481V200.966C736.631 190.105 741 179.692 748.768 172.012C756.535 164.332 767.067 160.012 778.051 160ZM941.177 582.644C947.302 576.588 950.747 568.377 950.757 559.812V200.966C950.747 192.402 947.302 184.19 941.177 178.134C935.051 172.078 926.747 168.671 918.084 168.662H900.496C899.387 168.663 898.312 169.102 897.529 169.878C896.745 170.654 896.304 171.707 896.303 172.804C896.299 176.047 894.996 179.157 892.681 181.45C890.365 183.743 887.225 185.033 883.95 185.037H810.427C807.152 185.033 804.012 183.743 801.697 181.45C799.381 179.157 798.079 176.047 798.075 172.804C798.074 171.707 797.633 170.654 796.849 169.878C796.065 169.102 793.865 168.662 793.865 168.662H778.051C769.389 168.671 761.084 172.078 754.959 178.134C748.834 184.19 745.389 192.402 745.379 200.966V559.812C745.389 568.377 748.834 576.588 754.959 582.644C761.084 588.7 769.389 592.107 778.051 592.116H918.084C926.747 592.107 935.051 588.7 941.177 582.644Z" fill="#1A202C"/>
<path d="M850.333 178.472H832.812C832.296 178.472 831.801 178.269 831.436 177.908C831.071 177.547 830.866 177.057 830.866 176.547C830.866 176.036 831.071 175.547 831.436 175.186C831.801 174.825 832.296 174.622 832.812 174.622H850.333C850.849 174.622 851.344 174.825 851.709 175.186C852.074 175.547 852.28 176.036 852.28 176.547C852.28 177.057 852.074 177.547 851.709 177.908C851.344 178.269 850.849 178.472 850.333 178.472V178.472Z" fill="white"/>
<path d="M862.499 177.991C863.036 177.991 863.472 177.56 863.472 177.029C863.472 176.497 863.036 176.066 862.499 176.066C861.961 176.066 861.525 176.497 861.525 177.029C861.525 177.56 861.961 177.991 862.499 177.991Z" fill="white"/>
<rect x="756.17" y="194.778" width="53.5674" height="13.2406" rx="5" fill="#E3E3E3"/>
<path d="M756.169 222.206H922.394C925.155 222.206 927.394 224.444 927.394 227.206V307.053C927.394 309.814 925.155 312.053 922.394 312.053H761.169C758.408 312.053 756.169 309.814 756.169 307.053V222.206Z" fill="white" stroke="#BDBDBD" stroke-width="0.5"/>
<line x1="761.909" y1="282.483" x2="918.785" y2="282.483" stroke="#E3E3E3" stroke-width="0.5"/>
<rect x="761.909" y="232.609" width="156.876" height="42.5592" rx="5" fill="#E0E0E0"/>
<rect x="762.059" y="287.613" width="77.1814" height="18.6152" rx="2.85" fill="#E0E0E0" stroke="#1A202C" stroke-width="0.3"/>
<rect x="842.41" y="287.613" width="77.1814" height="18.6152" rx="2.85" fill="#E0E0E0" stroke="#1A202C" stroke-width="0.3"/>
<path d="M756.169 372.581H922.394C925.155 372.581 927.394 374.82 927.394 377.581V438.513C927.394 441.274 925.155 443.513 922.394 443.513H761.169C758.408 443.513 756.169 441.274 756.169 438.513V372.581Z" fill="white" stroke="#BDBDBD" stroke-width="0.5"/>
<line x1="761.909" y1="413.945" x2="918.785" y2="413.945" stroke="#E3E3E3" stroke-width="0.5"/>
<rect x="761.909" y="382.984" width="156.876" height="21.7525" rx="5" fill="#E0E0E0"/>
<rect x="762.059" y="419.214" width="77.1814" height="18.6152" rx="2.85" fill="#31518B" stroke="#1A202C" stroke-width="0.3"/>
<rect x="842.41" y="419.214" width="77.1814" height="18.6152" rx="2.85" fill="#31518B" stroke="#1A202C" stroke-width="0.3"/>
<path d="M866.695 332.953H934.177C936.855 332.953 939.027 335.125 939.027 337.803V351.568H866.695C864.017 351.568 861.845 349.397 861.845 346.718V337.803C861.845 335.125 864.017 332.953 866.695 332.953Z" fill="#31518B" stroke="#1A202C" stroke-width="0.3"/>
</g>
<defs>
<filter id="filter0_f" x="8" y="525" width="993" height="98" filterUnits="userSpaceOnUse" color-interpolation-filters="sRGB">
<feFlood flood-opacity="0" result="BackgroundImageFix"/>
<feBlend mode="normal" in="SourceGraphic" in2="BackgroundImageFix" result="shape"/>
<feGaussianBlur stdDeviation="22" result="effect1_foregroundBlur"/>
</filter>
<filter id="filter1_d" x="754.019" y="345.028" width="177.78" height="74.8315" filterUnits="userSpaceOnUse" color-interpolation-filters="sRGB">
<feFlood flood-opacity="0" result="BackgroundImageFix"/>
<feColorMatrix in="SourceAlpha" type="matrix" values="0 0 0 0 0 0 0 0 0 0 0 0 0 0 0 0 0 0 127 0"/>
<feOffset dy="4"/>
<feGaussianBlur stdDeviation="2"/>
<feColorMatrix type="matrix" values="0 0 0 0 0 0 0 0 0 0 0 0 0 0 0 0 0 0 0.25 0"/>
<feBlend mode="normal" in2="BackgroundImageFix" result="effect1_dropShadow"/>
<feBlend mode="normal" in="SourceGraphic" in2="effect1_dropShadow" result="shape"/>
</filter>
<filter id="filter2_f" x="725" y="571" width="246" height="45.8691" filterUnits="userSpaceOnUse" color-interpolation-filters="sRGB">
<feFlood flood-opacity="0" result="BackgroundImageFix"/>
<feBlend mode="normal" in="SourceGraphic" in2="BackgroundImageFix" result="shape"/>
<feGaussianBlur stdDeviation="10" result="effect1_foregroundBlur"/>
</filter>
<linearGradient id="paint0_linear" x1="-1.94452e-10" y1="553" x2="1008" y2="553" gradientUnits="userSpaceOnUse">
<stop stop-color="#0D1012" stop-opacity="0.8"/>
<stop offset="0.0295345" stop-color="#CAD4DB"/>
<stop offset="0.0625" stop-color="#242729" stop-opacity="0.8"/>
<stop offset="0.133609" stop-color="#A3ACB1"/>
<stop offset="0.865967" stop-color="#A3ACB1"/>
<stop offset="0.941937" stop-color="#242729" stop-opacity="0.8"/>
<stop offset="0.971275" stop-color="#CAD4DB"/>
<stop offset="0.996436" stop-color="#0D1012" stop-opacity="0.8"/>
</linearGradient>
<linearGradient id="paint1_linear" x1="504" y1="556" x2="504" y2="568" gradientUnits="userSpaceOnUse">
<stop stop-color="#7A7F83"/>
<stop offset="1" stop-color="#0B0B0E"/>
</linearGradient>
<linearGradient id="paint2_linear" x1="437.5" y1="553.643" x2="574.5" y2="553.643" gradientUnits="userSpaceOnUse">
<stop stop-color="#3C3C3C" stop-opacity="0.8"/>
<stop offset="0.317518" stop-color="#3C3C3C" stop-opacity="0"/>
<stop offset="0.660584" stop-color="#3C3C3C" stop-opacity="0"/>
<stop offset="1" stop-color="#444444" stop-opacity="0.8"/>
</linearGradient>
<clipPath id="clip0">
<rect width="761" height="478" fill="white" transform="translate(124 33)"/>
</clipPath>
<clipPath id="clip1">
<rect width="774.621" height="478" fill="white" transform="translate(166 33)"/>
</clipPath>
<clipPath id="clip2">
<rect width="19.5349" height="19.4371" fill="white" transform="translate(135.281 180.285) rotate(-90)"/>
</clipPath>
<clipPath id="clip3">
<rect width="245" height="457" fill="white" transform="translate(729 160)"/>
</clipPath>
</defs>
</svg>
